<mxfile host="app.diagrams.net" agent="Mozilla/5.0 (Windows NT 10.0; Win64; x64) AppleWebKit/537.36 (KHTML, like Gecko) Chrome/128.0.0.0 Safari/537.36" version="24.7.15">
  <diagram name="Page-1" id="wrd1BHU1qQaMwPGmg0tR">
    <mxGraphModel dx="5024" dy="2130" grid="1" gridSize="10" guides="1" tooltips="1" connect="1" arrows="1" fold="1" page="1" pageScale="1" pageWidth="827" pageHeight="1169" math="0" shadow="0">
      <root>
        <mxCell id="0" />
        <mxCell id="1" parent="0" />
        <mxCell id="qXwME-4BAcDL_cjT7Dag-3" value="" style="rounded=0;whiteSpace=wrap;html=1;fillColor=#000000;fillStyle=auto;gradientColor=none;gradientDirection=radial;strokeColor=#FFFFFF;" vertex="1" parent="1">
          <mxGeometry x="-490" y="40" width="2680" height="1270" as="geometry" />
        </mxCell>
        <mxCell id="qXwME-4BAcDL_cjT7Dag-5" value="OCR &amp;amp; OCV MOCK WINDOW" style="rounded=1;html=1;shadow=0;dashed=0;whiteSpace=wrap;fontSize=22;fillColor=#f2f2f2;align=left;textShadow=1;fontStyle=0;fontFamily=Helvetica;labelBorderColor=none;labelBackgroundColor=#ffffff;strokeColor=#23445d;" vertex="1" parent="1">
          <mxGeometry x="-490" width="2680" height="40" as="geometry" />
        </mxCell>
        <mxCell id="qXwME-4BAcDL_cjT7Dag-6" value="X" style="rounded=1;html=1;shadow=0;dashed=0;whiteSpace=wrap;fontSize=26;fillColor=#DD426C;align=center;strokeColor=#4D4D4D;fontColor=#ffffff;fontFamily=Lucida Console;arcSize=48;imageWidth=22;imageHeight=21;" vertex="1" parent="1">
          <mxGeometry x="2151" width="39" height="40" as="geometry" />
        </mxCell>
        <mxCell id="qXwME-4BAcDL_cjT7Dag-146" value="" style="rounded=0;whiteSpace=wrap;html=1;strokeColor=#FFFFFF;strokeWidth=3;fillColor=#000000;" vertex="1" parent="1">
          <mxGeometry x="-480" y="460" width="2660" height="840" as="geometry" />
        </mxCell>
        <mxCell id="qXwME-4BAcDL_cjT7Dag-169" value="" style="strokeWidth=1;html=1;shadow=0;dashed=0;shape=mxgraph.android.rrect;rSize=0;fillColor=#eeeeee;strokeColor=none;" vertex="1" parent="1">
          <mxGeometry x="-480" y="55" width="2660" height="90" as="geometry" />
        </mxCell>
        <mxCell id="qXwME-4BAcDL_cjT7Dag-170" value="&lt;font style=&quot;font-size: 48px; font-weight: normal;&quot;&gt;Model&lt;/font&gt;" style="strokeWidth=1;html=1;shadow=0;dashed=0;shape=mxgraph.android.anchor;fontStyle=1;fontColor=#666666;" vertex="1" parent="qXwME-4BAcDL_cjT7Dag-169">
          <mxGeometry width="665" height="90" as="geometry" />
        </mxCell>
        <mxCell id="qXwME-4BAcDL_cjT7Dag-173" value="" style="strokeWidth=1;html=1;shadow=0;dashed=0;shape=mxgraph.android.anchor;fontStyle=1;fontColor=#666666;" vertex="1" parent="qXwME-4BAcDL_cjT7Dag-169">
          <mxGeometry x="1992.4714828897336" width="637.1863117870722" height="90" as="geometry" />
        </mxCell>
        <mxCell id="qXwME-4BAcDL_cjT7Dag-174" value="" style="strokeWidth=1;html=1;shadow=0;dashed=0;shape=mxgraph.android.anchor;fontStyle=1;fontColor=#666666;" vertex="1" parent="qXwME-4BAcDL_cjT7Dag-169">
          <mxGeometry x="1994.9999999999998" width="665" height="90" as="geometry" />
        </mxCell>
        <mxCell id="qXwME-4BAcDL_cjT7Dag-171" value="&lt;span style=&quot;font-size: 48px; font-weight: 400;&quot;&gt;OCV-OCR&lt;/span&gt;" style="strokeWidth=1;html=1;shadow=0;dashed=0;shape=mxgraph.android.rrect;rSize=0;fontStyle=1;fillColor=#44c5f5;strokeColor=none;fontColor=#ffffff;" vertex="1" parent="qXwME-4BAcDL_cjT7Dag-169">
          <mxGeometry x="1860" width="800" height="90" as="geometry" />
        </mxCell>
        <mxCell id="qXwME-4BAcDL_cjT7Dag-172" value="" style="strokeWidth=1;html=1;shadow=0;dashed=0;shape=mxgraph.android.rrect;rSize=0;fillColor=#33b5e5;strokeColor=none;" vertex="1" parent="qXwME-4BAcDL_cjT7Dag-171">
          <mxGeometry y="81" width="800.0000000000001" height="9" as="geometry" />
        </mxCell>
        <mxCell id="qXwME-4BAcDL_cjT7Dag-176" value="&lt;font style=&quot;font-size: 48px;&quot;&gt;Pre-Processor&amp;nbsp;&lt;/font&gt;" style="text;html=1;align=center;verticalAlign=middle;whiteSpace=wrap;rounded=0;" vertex="1" parent="qXwME-4BAcDL_cjT7Dag-169">
          <mxGeometry x="940" width="710" height="90" as="geometry" />
        </mxCell>
        <mxCell id="qXwME-4BAcDL_cjT7Dag-191" value="" style="shape=table;startSize=0;container=1;collapsible=0;childLayout=tableLayout;fontSize=11;fillColor=none;strokeColor=none;" vertex="1" parent="1">
          <mxGeometry x="-200" y="700" width="60" height="60" as="geometry" />
        </mxCell>
        <mxCell id="qXwME-4BAcDL_cjT7Dag-192" value="" style="shape=tableRow;horizontal=0;startSize=0;swimlaneHead=0;swimlaneBody=0;strokeColor=inherit;top=0;left=0;bottom=0;right=0;collapsible=0;dropTarget=0;fillColor=none;points=[[0,0.5],[1,0.5]];portConstraint=eastwest;fontSize=16;" vertex="1" parent="qXwME-4BAcDL_cjT7Dag-191">
          <mxGeometry width="60" height="15" as="geometry" />
        </mxCell>
        <mxCell id="qXwME-4BAcDL_cjT7Dag-193" value="Item 1" style="shape=partialRectangle;html=1;whiteSpace=wrap;connectable=0;strokeColor=inherit;overflow=hidden;fillColor=none;top=0;left=0;bottom=0;right=0;pointerEvents=1;fontSize=12;align=left;spacingLeft=5;" vertex="1" parent="qXwME-4BAcDL_cjT7Dag-192">
          <mxGeometry width="60" height="15" as="geometry">
            <mxRectangle width="60" height="15" as="alternateBounds" />
          </mxGeometry>
        </mxCell>
        <mxCell id="qXwME-4BAcDL_cjT7Dag-194" value="" style="shape=tableRow;horizontal=0;startSize=0;swimlaneHead=0;swimlaneBody=0;strokeColor=inherit;top=0;left=0;bottom=0;right=0;collapsible=0;dropTarget=0;fillColor=none;points=[[0,0.5],[1,0.5]];portConstraint=eastwest;fontSize=16;" vertex="1" parent="qXwME-4BAcDL_cjT7Dag-191">
          <mxGeometry y="15" width="60" height="15" as="geometry" />
        </mxCell>
        <mxCell id="qXwME-4BAcDL_cjT7Dag-195" value="Item 2" style="shape=partialRectangle;html=1;whiteSpace=wrap;connectable=0;strokeColor=inherit;overflow=hidden;fillColor=none;top=0;left=0;bottom=0;right=0;pointerEvents=1;fontSize=12;align=left;spacingLeft=5;" vertex="1" parent="qXwME-4BAcDL_cjT7Dag-194">
          <mxGeometry width="60" height="15" as="geometry">
            <mxRectangle width="60" height="15" as="alternateBounds" />
          </mxGeometry>
        </mxCell>
        <mxCell id="qXwME-4BAcDL_cjT7Dag-196" value="" style="shape=tableRow;horizontal=0;startSize=0;swimlaneHead=0;swimlaneBody=0;strokeColor=inherit;top=0;left=0;bottom=0;right=0;collapsible=0;dropTarget=0;fillColor=none;points=[[0,0.5],[1,0.5]];portConstraint=eastwest;fontSize=16;" vertex="1" parent="qXwME-4BAcDL_cjT7Dag-191">
          <mxGeometry y="30" width="60" height="15" as="geometry" />
        </mxCell>
        <mxCell id="qXwME-4BAcDL_cjT7Dag-197" value="Item 3" style="shape=partialRectangle;html=1;whiteSpace=wrap;connectable=0;strokeColor=inherit;overflow=hidden;fillColor=none;top=0;left=0;bottom=0;right=0;pointerEvents=1;fontSize=12;align=left;spacingLeft=5;" vertex="1" parent="qXwME-4BAcDL_cjT7Dag-196">
          <mxGeometry width="60" height="15" as="geometry">
            <mxRectangle width="60" height="15" as="alternateBounds" />
          </mxGeometry>
        </mxCell>
        <mxCell id="qXwME-4BAcDL_cjT7Dag-198" style="shape=tableRow;horizontal=0;startSize=0;swimlaneHead=0;swimlaneBody=0;strokeColor=inherit;top=0;left=0;bottom=0;right=0;collapsible=0;dropTarget=0;fillColor=none;points=[[0,0.5],[1,0.5]];portConstraint=eastwest;fontSize=16;" vertex="1" parent="qXwME-4BAcDL_cjT7Dag-191">
          <mxGeometry y="45" width="60" height="15" as="geometry" />
        </mxCell>
        <mxCell id="qXwME-4BAcDL_cjT7Dag-199" value="Item 4" style="shape=partialRectangle;html=1;whiteSpace=wrap;connectable=0;strokeColor=inherit;overflow=hidden;fillColor=none;top=0;left=0;bottom=0;right=0;pointerEvents=1;fontSize=12;align=left;spacingLeft=5;" vertex="1" parent="qXwME-4BAcDL_cjT7Dag-198">
          <mxGeometry width="60" height="15" as="geometry">
            <mxRectangle width="60" height="15" as="alternateBounds" />
          </mxGeometry>
        </mxCell>
        <mxCell id="qXwME-4BAcDL_cjT7Dag-224" value="" style="rounded=0;whiteSpace=wrap;html=1;strokeWidth=3;strokeColor=#FFFFFF;fillColor=#000000;" vertex="1" parent="1">
          <mxGeometry x="-480" y="150" width="1360" height="300" as="geometry" />
        </mxCell>
        <mxCell id="qXwME-4BAcDL_cjT7Dag-225" value="" style="rounded=0;whiteSpace=wrap;html=1;strokeWidth=3;strokeColor=#FFFFFF;fillColor=#000000;" vertex="1" parent="1">
          <mxGeometry x="890" y="150" width="1290" height="300" as="geometry" />
        </mxCell>
        <mxCell id="qXwME-4BAcDL_cjT7Dag-226" value="" style="rounded=0;whiteSpace=wrap;html=1;strokeColor=#FFFFFF;strokeWidth=3;fillColor=#000000;" vertex="1" parent="1">
          <mxGeometry x="-473" y="470" width="120" height="820" as="geometry" />
        </mxCell>
      </root>
    </mxGraphModel>
  </diagram>
</mxfile>
